# xmcd
#
# Track frame offsets:
#	150
#	16350
#	48300
#	76163
#	91910
#	102790
#	130443
#	143483
#	169863
#	193033
#	209005
#	244645
#	263020
#	290700
#	305308
#	323473
#
# Disc length: 4498 seconds
#
# Revision: 0
# Processed by: cddbd v1.5.1PL0 Copyright (c) Steve Scherf et al.
# Submitted via: dBpowerAMP V4.0
#
DISCID=d6119010
DTITLE=Nina Simone - My baby just cares for me
DYEAR=1993
DGENRE=Blues
TTITLE0=My Baby Just Cares For Me
TTITLE1=House of The Rising Sun
TTITLE2=To be Young, Gifted And Black
TTITLE3=Here Comes The Sun
TTITLE4=I Want a Little Sugar in my Bowl
TTITLE5=Gin House Blues
TTITLE6=Summertime
TTITLE7=You Can Have Him
TTITLE8=My Way
TTITLE9=Satin Doll
TTITLE10=Four Women
TTITLE11=Don´t Let me be Misunderstood
TTITLE12=Nina´s Blues
TTITLE13=Agent of The Morning
TTITLE14=I Loves You Porgy
TTITLE15=Backlash Blues
EXTD=
EXTT0=
EXTT1=
EXTT2=
EXTT3=
EXTT4=
EXTT5=
EXTT6=
EXTT7=
EXTT8=
EXTT9=
EXTT10=
EXTT11=
EXTT12=
EXTT13=
EXTT14=
EXTT15=
PLAYORDER=
